<svg width="175" height="34" viewBox="0 0 175 34" fill="none" xmlns="http://www.w3.org/2000/svg">
<path d="M26.1504 25.224C27.1104 25.224 27.9104 25.304 28.5504 25.464C29.1904 25.592 29.6864 25.832 30.0384 26.184C30.4224 26.504 30.6784 26.888 30.8064 27.336C30.9664 27.784 31.0464 28.344 31.0464 29.016C31.0464 30.648 30.5344 31.72 29.5104 32.232C28.4864 32.744 26.7104 33 24.1824 33H6.18244C5.28644 33 4.37444 32.744 3.44644 32.232C2.55044 31.688 1.79844 30.952 1.19044 30.024C0.582438 29.064 0.278438 28.056 0.278438 27C0.278438 26.04 0.326438 25.256 0.422438 24.648C0.550438 24.008 0.822438 23.352 1.23844 22.68C1.65444 22.008 2.02244 21.48 2.34244 21.096C2.69444 20.68 3.31844 20.008 4.21444 19.08L16.4544 7.944H6.71044C4.56644 7.944 3.01444 7.64 2.05444 7.032C1.09444 6.392 0.614438 5.336 0.614438 3.864C0.614438 2.488 0.998438 1.528 1.76644 0.983997C2.56644 0.407997 3.73444 0.119997 5.27044 0.119997H24.9024C25.8624 0.119997 26.7104 0.295998 27.4464 0.647999C28.1824 0.967999 28.7424 1.4 29.1264 1.944C29.5104 2.456 29.7984 2.968 29.9904 3.48C30.1824 3.992 30.2784 4.472 30.2784 4.92C30.2784 5.496 30.2624 6.008 30.2304 6.456C30.1984 6.904 30.1024 7.336 29.9424 7.752C29.8144 8.136 29.7184 8.44 29.6544 8.664C29.5904 8.888 29.3984 9.192 29.0784 9.576C28.7904 9.96 28.5824 10.216 28.4544 10.344C28.3264 10.472 28.0224 10.792 27.5424 11.304C27.0624 11.784 26.7264 12.12 26.5344 12.312L12.5184 25.224H26.1504ZM45.5091 22.872C45.5091 24.696 46.2131 25.608 47.6211 25.608C48.1011 25.608 48.5171 25.464 48.8691 25.176C49.2531 24.856 49.5411 24.424 49.7331 23.88C49.9251 23.336 50.0211 22.712 50.0211 22.008V15.576C50.0211 14.488 50.2131 13.544 50.5971 12.744C50.9811 11.912 51.5411 11.272 52.2771 10.824C53.0131 10.376 53.8771 10.152 54.8691 10.152C56.5971 10.152 57.9411 10.536 58.9011 11.304C59.8611 12.04 60.3411 13.416 60.3411 15.432V27.912C60.3411 29.864 59.9411 31.208 59.1411 31.944C58.3411 32.68 56.9331 33.048 54.9171 33.048C54.0531 33.048 53.3171 32.968 52.7091 32.808C52.1011 32.616 51.6051 32.344 51.2211 31.992C50.8691 31.64 50.5971 31.176 50.4051 30.6C49.0931 31.464 47.7011 32.072 46.2291 32.424C44.7891 32.776 43.1731 32.952 41.3811 32.952C39.1091 32.952 37.4771 32.072 36.4851 30.312C35.4931 28.52 34.9971 25.592 34.9971 21.528C34.9971 19.512 35.0451 17.88 35.1411 16.632C35.2371 15.352 35.3811 14.264 35.5731 13.368C35.7971 12.44 36.1171 11.752 36.5331 11.304C36.9811 10.856 37.4931 10.536 38.0691 10.344C38.6771 10.152 39.4611 10.056 40.4211 10.056C42.2131 10.056 43.4931 10.392 44.2611 11.064C45.0611 11.736 45.4611 12.744 45.4611 14.088L45.5091 22.872ZM79.7331 20.088C79.7331 18.296 79.0291 17.4 77.6211 17.4C76.9491 17.4 76.3891 17.688 75.9411 18.264C75.5251 18.808 75.2851 19.544 75.2211 20.472V27.864C75.2211 29.816 74.8211 31.16 74.0211 31.896C73.2211 32.632 71.8131 33 69.7971 33C67.9091 33 66.6131 32.568 65.9091 31.704C65.2371 30.808 64.9011 29.352 64.9011 27.336V15.528C64.9011 13.896 65.3331 12.584 66.1971 11.592C67.0931 10.6 68.2771 10.104 69.7491 10.104C70.9651 10.104 71.9891 10.28 72.8211 10.632C73.6531 10.984 74.2771 11.592 74.6931 12.456C77.1891 10.824 80.2291 10.008 83.8131 10.008C86.0851 10.008 87.7171 10.904 88.7091 12.696C89.7331 14.488 90.2451 17.432 90.2451 21.528C90.2451 23.544 90.1971 25.192 90.1011 26.472C90.0051 27.72 89.8451 28.808 89.6211 29.736C89.4291 30.632 89.1091 31.304 88.6611 31.752C88.2131 32.2 87.6851 32.52 87.0771 32.712C86.5011 32.904 85.7491 33 84.8211 33C83.0291 33 81.7331 32.664 80.9331 31.992C80.1651 31.32 79.7811 30.328 79.7811 29.016L79.7331 20.088ZM106.383 26.328C106.383 28.504 105.903 30.168 104.943 31.32C103.983 32.44 102.591 33 100.767 33C99.0392 33 97.6952 32.488 96.7352 31.464C95.7752 30.408 95.2952 28.632 95.2952 26.136V5.88C95.2952 4.856 95.4232 3.976 95.6792 3.24C95.9672 2.472 96.3672 1.864 96.8792 1.416C97.3912 0.967998 97.9672 0.647998 98.6072 0.455998C99.2472 0.231997 99.9672 0.119997 100.767 0.119997H116.511C118.367 0.119997 119.743 0.407997 120.639 0.983997C121.567 1.56 122.031 2.6 122.031 4.104C122.031 5.512 121.631 6.504 120.831 7.08C120.063 7.624 118.783 7.896 116.991 7.896H106.383V13.512H114.831C115.695 13.512 116.415 13.576 116.991 13.704C117.599 13.832 118.079 14.056 118.431 14.376C118.815 14.664 119.071 15.032 119.199 15.48C119.359 15.896 119.439 16.44 119.439 17.112C119.439 18.2 119.039 18.984 118.239 19.464C117.439 19.912 116.159 20.136 114.399 20.136H106.383V26.328ZM127.913 22.728V17.064C127.113 17.032 126.473 16.904 125.993 16.68C125.513 16.424 125.161 16.104 124.937 15.72C124.745 15.336 124.649 14.856 124.649 14.28C124.649 12.456 125.753 11.464 127.961 11.304V6.84C127.961 5.624 128.841 4.536 130.601 3.576C132.361 2.584 134.105 2.088 135.833 2.088C136.889 2.088 137.577 2.392 137.897 3C138.217 3.608 138.377 4.52 138.377 5.736L138.425 11.256H139.721C141.481 11.256 142.681 11.496 143.321 11.976C143.993 12.424 144.329 13.256 144.329 14.472C144.329 14.984 144.233 15.416 144.041 15.768C143.849 16.12 143.529 16.392 143.081 16.584C142.665 16.776 142.153 16.92 141.545 17.016C140.937 17.08 140.185 17.112 139.289 17.112H138.425V22.392C138.425 22.904 138.441 23.336 138.473 23.688C138.537 24.008 138.617 24.264 138.713 24.456C138.809 24.648 138.937 24.776 139.097 24.84C139.289 24.904 139.513 24.936 139.769 24.936C140.153 24.936 140.473 24.808 140.729 24.552C140.985 24.264 141.177 23.96 141.305 23.64C141.465 23.288 141.657 22.984 141.881 22.728C142.137 22.44 142.425 22.296 142.745 22.296C143.481 22.296 144.041 22.472 144.425 22.824C144.841 23.176 145.049 23.608 145.049 24.12C145.049 24.984 144.873 25.912 144.521 26.904C144.201 27.896 143.721 28.856 143.081 29.784C142.441 30.712 141.545 31.48 140.393 32.088C139.273 32.696 138.009 33 136.601 33C133.433 33 131.193 32.2 129.881 30.6C128.569 29 127.913 26.376 127.913 22.728ZM157.448 33.288C154.92 33.288 152.824 32.264 151.16 30.216C149.496 28.136 148.664 25.304 148.664 21.72C148.664 18.072 149.48 15.176 151.112 13.032C152.776 10.856 154.888 9.768 157.448 9.768C160.04 9.768 162.44 10.68 164.648 12.504C165.512 10.904 166.904 10.104 168.824 10.104C170.552 10.104 171.896 10.488 172.856 11.256C173.816 11.992 174.296 13.368 174.296 15.384V27.864C174.296 29.784 173.896 31.128 173.096 31.896C172.296 32.632 170.888 33 168.872 33C166.76 33 165.368 32.408 164.696 31.224C162.648 32.6 160.232 33.288 157.448 33.288ZM163.976 17.112C163.432 16.184 162.728 15.72 161.864 15.72C161.032 15.72 160.36 16.328 159.848 17.544C159.336 18.76 159.08 20.152 159.08 21.72C159.08 23.192 159.32 24.504 159.8 25.656C160.28 26.808 160.952 27.384 161.816 27.384C162.712 27.384 163.432 26.952 163.976 26.088V17.112Z" fill="#FEFEFE"/>
</svg>
